<svg xmlns="http://www.w3.org/2000/svg" viewBox="0 0 300 400" width="300" height="400">
  <defs>
    <linearGradient id="bg" x1="0" y1="0" x2="0" y2="1"><stop offset="0%" stop-color="#f5f3ff"/><stop offset="100%" stop-color="#ddd6fe"/></linearGradient>
    <linearGradient id="hair" x1="0" y1="0" x2="0" y2="1"><stop offset="0%" stop-color="#2c1810"/><stop offset="100%" stop-color="#1a0f0a"/></linearGradient>
    <linearGradient id="skin" x1="0" y1="0" x2="0" y2="1"><stop offset="0%" stop-color="#f5d0a9"/><stop offset="100%" stop-color="#e8b88a"/></linearGradient>
  </defs>
  <rect width="300" height="400" fill="url(#bg)"/>
  <rect x="130" y="260" width="40" height="55" rx="8" fill="url(#skin)"/>
  <!-- Face -->
  <path d="M100 190 Q100 130 150 125 Q200 130 200 190 Q200 250 175 270 Q150 280 125 270 Q100 250 100 190Z" fill="url(#skin)"/>
  <!-- Hair top with wave -->
  <path d="M100 168 Q105 108 150 98 Q195 108 200 168 Q190 132 175 122 Q155 112 150 115 Q145 112 125 122 Q110 132 100 168Z" fill="url(#hair)"/>
  <!-- See-through wavy bangs -->
  <path d="M118 130 Q116 150 120 170" stroke="url(#hair)" stroke-width="3" opacity="0.5"/>
  <path d="M128 126 Q130 148 128 170" stroke="url(#hair)" stroke-width="3" opacity="0.45"/>
  <path d="M138 124 Q142 148 139 172" stroke="url(#hair)" stroke-width="3" opacity="0.5"/>
  <path d="M148 123 Q152 150 150 170" stroke="url(#hair)" stroke-width="3" opacity="0.45"/>
  <path d="M158 124 Q162 148 160 172" stroke="url(#hair)" stroke-width="3" opacity="0.5"/>
  <path d="M168 126 Q172 148 170 170" stroke="url(#hair)" stroke-width="3" opacity="0.45"/>
  <path d="M178 128 Q182 148 180 168" stroke="url(#hair)" stroke-width="3" opacity="0.5"/>
  <!-- Wave texture on bangs -->
  <path d="M120 145 Q125 140 130 145" stroke="#1a0f0a" stroke-width="0.8" fill="none" opacity="0.3"/>
  <path d="M140 143 Q145 138 150 143" stroke="#1a0f0a" stroke-width="0.8" fill="none" opacity="0.3"/>
  <path d="M160 145 Q165 140 170 145" stroke="#1a0f0a" stroke-width="0.8" fill="none" opacity="0.3"/>
  <!-- Short sides -->
  <rect x="96" y="148" width="10" height="42" rx="3" fill="url(#hair)" opacity="0.45"/>
  <rect x="194" y="148" width="10" height="42" rx="3" fill="url(#hair)" opacity="0.45"/>
  <!-- Eyes -->
  <ellipse cx="132" cy="195" rx="5" ry="3.5" fill="#1a1a1a"/>
  <ellipse cx="168" cy="195" rx="5" ry="3.5" fill="#1a1a1a"/>
  <path d="M148 210 Q150 216 152 210" stroke="#c99a6b" stroke-width="1.5" fill="none"/>
  <path d="M142 228 Q150 234 158 228" stroke="#c48b7a" stroke-width="2" fill="none"/>
  <path d="M122 184 Q132 179 142 183" stroke="#1a1a1a" stroke-width="2.5" fill="none"/>
  <path d="M158 183 Q168 179 178 184" stroke="#1a1a1a" stroke-width="2.5" fill="none"/>
  <rect x="70" y="340" width="160" height="40" rx="20" fill="rgba(0,0,0,0.5)"/>
  <text x="150" y="366" text-anchor="middle" fill="white" font-family="sans-serif" font-size="16" font-weight="bold">시스루펌</text>
</svg>