<svg xmlns="http://www.w3.org/2000/svg" viewBox="0 0 300 400" width="300" height="400">
  <defs>
    <linearGradient id="bg" x1="0" y1="0" x2="0" y2="1"><stop offset="0%" stop-color="#fce7f3"/><stop offset="100%" stop-color="#f9a8d4"/></linearGradient>
    <linearGradient id="hair" x1="0" y1="0" x2="0" y2="1"><stop offset="0%" stop-color="#3b2314"/><stop offset="100%" stop-color="#251008"/></linearGradient>
    <linearGradient id="skin" x1="0" y1="0" x2="0" y2="1"><stop offset="0%" stop-color="#fddcb5"/><stop offset="100%" stop-color="#f5c69a"/></linearGradient>
  </defs>
  <rect width="300" height="400" fill="url(#bg)"/>
  <rect x="125" y="260" width="50" height="60" rx="10" fill="url(#skin)"/>
  <!-- Hair back - long tassel style -->
  <path d="M70 150 Q65 220 75 310 Q80 320 85 310 Q80 240 85 170Z" fill="url(#hair)"/>
  <path d="M230 150 Q235 220 225 310 Q220 320 215 310 Q220 240 215 170Z" fill="url(#hair)"/>
  <!-- Face -->
  <ellipse cx="150" cy="195" rx="62" ry="78" fill="url(#skin)"/>
  <!-- Hair top with fringe -->
  <path d="M80 170 Q85 95 150 85 Q215 95 220 170 Q210 135 190 125 Q170 118 150 120 Q130 118 110 125 Q90 135 80 170Z" fill="url(#hair)"/>
  <!-- Tassel bangs - wispy ends -->
  <path d="M100 130 Q98 155 95 170 Q93 175 97 168 Q100 155 102 135Z" fill="url(#hair)" opacity="0.8"/>
  <path d="M115 122 Q112 150 108 168 Q106 173 110 165 Q113 148 116 128Z" fill="url(#hair)" opacity="0.8"/>
  <path d="M130 118 Q128 148 126 168 Q124 174 128 164 Q130 145 132 124Z" fill="url(#hair)" opacity="0.8"/>
  <path d="M145 117 Q144 150 143 170 Q142 176 145 165 Q146 148 147 122Z" fill="url(#hair)" opacity="0.8"/>
  <path d="M160 118 Q162 148 163 168 Q165 174 162 164 Q160 145 158 124Z" fill="url(#hair)" opacity="0.8"/>
  <path d="M175 122 Q178 150 180 168 Q182 173 179 165 Q176 148 174 128Z" fill="url(#hair)" opacity="0.8"/>
  <!-- Side tassel layers -->
  <path d="M85 170 Q78 220 82 290 Q87 300 90 288 Q86 230 88 180Z" fill="url(#hair)" opacity="0.85"/>
  <path d="M215 170 Q222 220 218 290 Q213 300 210 288 Q214 230 212 180Z" fill="url(#hair)" opacity="0.85"/>
  <!-- Eyes -->
  <ellipse cx="130" cy="200" rx="6" ry="4" fill="#2c1810"/>
  <ellipse cx="170" cy="200" rx="6" ry="4" fill="#2c1810"/>
  <path d="M148 215 Q150 222 152 215" stroke="#d4a574" stroke-width="1.5" fill="none"/>
  <path d="M140 234 Q150 242 160 234" stroke="#e88b8b" stroke-width="2" fill="#e88b8b" opacity="0.6"/>
  <path d="M120 188 Q130 183 140 187" stroke="#2c1810" stroke-width="2" fill="none"/>
  <path d="M160 187 Q170 183 180 188" stroke="#2c1810" stroke-width="2" fill="none"/>
  <rect x="75" y="340" width="150" height="40" rx="20" fill="rgba(0,0,0,0.5)"/>
  <text x="150" y="366" text-anchor="middle" fill="white" font-family="sans-serif" font-size="16" font-weight="bold">태슬컷</text>
</svg>